# Blender 4.2.3 LTS
# www.blender.org
mtllib icosphere.mtl
o Icosphere
v -0.000000 -0.500000 -0.000000
v 0.361804 -0.223610 0.262863
v -0.138194 -0.223610 0.425325
v -0.447213 -0.223608 -0.000000
v -0.138194 -0.223610 -0.425325
v 0.361804 -0.223610 -0.262863
v 0.138194 0.223610 0.425325
v -0.361804 0.223610 0.262863
v -0.361804 0.223610 -0.262863
v 0.138194 0.223610 -0.425325
v 0.447213 0.223608 -0.000000
v -0.000000 0.500000 -0.000000
v -0.081228 -0.425327 0.249998
v 0.212661 -0.425327 0.154506
v 0.131434 -0.262869 0.404506
v 0.425324 -0.262868 -0.000000
v 0.212661 -0.425327 -0.154506
v -0.262865 -0.425326 -0.000000
v -0.344095 -0.262868 0.249998
v -0.081228 -0.425327 -0.249998
v -0.344095 -0.262868 -0.249998
v 0.131434 -0.262869 -0.404506
v 0.475529 0.000000 0.154506
v 0.475529 0.000000 -0.154506
v -0.000000 0.000000 0.500000
v 0.293893 0.000000 0.404508
v -0.475529 0.000000 0.154506
v -0.293893 0.000000 0.404508
v -0.293893 0.000000 -0.404508
v -0.475529 0.000000 -0.154506
v 0.293893 0.000000 -0.404508
v -0.000000 0.000000 -0.500000
v 0.344095 0.262868 0.249998
v -0.131434 0.262869 0.404506
v -0.425324 0.262868 -0.000000
v -0.131434 0.262869 -0.404506
v 0.344095 0.262868 -0.249998
v 0.081228 0.425327 0.249998
v 0.262865 0.425326 -0.000000
v -0.212661 0.425327 0.154506
v -0.212661 0.425327 -0.154506
v 0.081228 0.425327 -0.249998
vn -0.0000 -1.0000 -0.0000
vn 0.4253 -0.8507 0.3090
vn -0.1624 -0.8507 0.5000
vn 0.7236 -0.4473 0.5257
vn 0.4254 -0.8506 0.3090
vn 0.8506 -0.5258 0.0001
vn -0.1625 -0.8507 0.4999
vn -0.5257 -0.8507 -0.0000
vn -0.0001 -1.0000 -0.0000
vn -0.1625 -0.8507 -0.4999
vn -0.0000 -1.0000 -0.0001
vn -0.1624 -0.8507 -0.5000
vn 0.4253 -0.8507 -0.3090
vn 0.7236 -0.4472 0.5257
vn 0.8507 -0.5257 -0.0000
vn 0.9511 -0.0001 0.3090
vn -0.2764 -0.4472 0.8507
vn 0.2628 -0.5257 0.8090
vn -0.0000 -0.0001 1.0000
vn -0.8944 -0.4472 0.0001
vn -0.6882 -0.5257 0.5000
vn -0.9511 -0.0001 0.3090
vn -0.2765 -0.4472 -0.8506
vn -0.6882 -0.5257 -0.5001
vn -0.5878 -0.0000 -0.8090
vn 0.7236 -0.4472 -0.5258
vn 0.2629 -0.5257 -0.8090
vn 0.5878 -0.0001 -0.8090
vn 0.9510 -0.0000 0.3091
vn 0.5878 -0.0000 0.8090
vn -0.0001 -0.0000 1.0000
vn -0.5877 -0.0000 0.8090
vn -0.8945 -0.4472 -0.0000
vn -0.9511 -0.0000 0.3090
vn -0.9511 -0.0000 -0.3090
vn -0.2764 -0.4472 -0.8507
vn -0.5877 -0.0000 -0.8090
vn -0.0001 -0.0000 -1.0000
vn 0.5878 -0.0000 -0.8090
vn 0.9510 -0.0000 -0.3091
vn 0.2764 0.4473 0.8506
vn 0.6881 0.5258 0.5000
vn 0.1625 0.8506 0.5000
vn -0.7236 0.4473 0.5258
vn -0.2629 0.5258 0.8090
vn -0.4253 0.8506 0.3091
vn -0.7236 0.4473 -0.5257
vn -0.8506 0.5258 -0.0000
vn -0.4254 0.8506 -0.3090
vn 0.2763 0.4473 -0.8506
vn -0.2628 0.5258 -0.8090
vn 0.1624 0.8506 -0.5000
vn 0.8944 0.4472 -0.0000
vn 0.6882 0.5258 -0.4999
vn 0.5258 0.8506 -0.0000
vn 0.5257 0.8507 -0.0000
vn 0.1625 0.8507 -0.4999
vn 0.0001 1.0000 -0.0000
vn 0.5258 0.8506 -0.0001
vn 0.6882 0.5258 -0.5000
vn 0.1625 0.8507 -0.5000
vn 0.6881 0.5258 -0.5000
vn 0.2764 0.4473 -0.8506
vn 0.1625 0.8506 -0.5000
vn 0.1624 0.8507 -0.5000
vn -0.4253 0.8507 -0.3090
vn -0.0000 1.0000 -0.0001
vn -0.2629 0.5258 -0.8090
vn -0.4253 0.8506 -0.3091
vn -0.4253 0.8507 0.3090
vn -0.0001 1.0000 -0.0000
vn -0.8506 0.5258 0.0001
vn -0.7236 0.4473 0.5257
vn -0.4254 0.8506 0.3090
vn 0.1624 0.8507 0.5000
vn -0.0000 1.0000 -0.0000
vn -0.2628 0.5258 0.8090
vn 0.1624 0.8506 0.5000
vn 0.1625 0.8507 0.4999
vn 0.6882 0.5258 0.5000
vn 0.5257 0.8507 0.0001
vn 0.6882 0.5258 0.4999
vn 0.8944 0.4473 -0.0000
vn 0.9511 0.0001 -0.3090
vn 0.6882 0.5257 -0.5000
vn 0.8944 0.4472 -0.0001
vn 0.5878 0.0001 -0.8090
vn 0.2765 0.4472 -0.8506
vn 0.6882 0.5257 -0.5001
vn -0.0000 0.0001 -1.0000
vn -0.2628 0.5257 -0.8090
vn 0.2764 0.4472 -0.8507
vn -0.5878 0.0001 -0.8090
vn -0.2629 0.5257 -0.8090
vn -0.7236 0.4472 -0.5258
vn -0.9511 0.0001 -0.3090
vn -0.8507 0.5257 -0.0001
vn -0.7237 0.4472 -0.5257
vn -0.8507 0.5257 -0.0000
vn -0.9511 0.0001 0.3090
vn -0.7236 0.4472 0.5257
vn -0.5878 0.0001 0.8090
vn -0.2629 0.5257 0.8090
vn -0.7236 0.4472 0.5258
vn -0.5877 -0.0000 0.8091
vn -0.0000 0.0001 1.0000
vn 0.2764 0.4472 0.8507
vn -0.2628 0.5257 0.8090
vn 0.5878 0.0001 0.8090
vn 0.6882 0.5257 0.5001
vn 0.2764 0.4472 0.8506
vn 0.9510 0.0001 0.3090
vn 0.6882 0.5257 0.5000
vn 0.9511 0.0001 0.3090
vn 0.8944 0.4472 0.0001
vn 0.5877 -0.0000 -0.8090
vn 0.0001 -0.0000 -1.0000
vn 0.2628 -0.5257 -0.8090
vn -0.0000 -0.0001 -1.0000
vn -0.9510 -0.0000 -0.3091
vn -0.5878 -0.0001 -0.8090
vn -0.6882 -0.5257 -0.5000
vn -0.8944 -0.4472 -0.0001
vn -0.9511 -0.0001 -0.3090
vn -0.9510 -0.0000 0.3091
vn -0.5878 -0.0000 0.8090
vn -0.9510 -0.0001 0.3090
vn -0.6882 -0.5257 0.5001
vn -0.2764 -0.4472 0.8506
vn -0.5878 -0.0001 0.8090
vn 0.0001 -0.0000 1.0000
vn 0.5877 -0.0000 0.8090
vn 0.2629 -0.5257 0.8090
vn 0.5877 -0.0000 0.8091
vn 0.7236 -0.4472 0.5258
vn 0.5878 -0.0001 0.8090
vn 0.9511 -0.0000 0.3090
vn 0.9511 -0.0000 -0.3090
vn 0.8945 0.4472 -0.0000
vn 0.8507 -0.5257 -0.0001
vn 0.7237 -0.4472 -0.5257
vn 0.9511 -0.0001 -0.3090
vn 0.4253 -0.8506 -0.3091
vn 0.2629 -0.5258 -0.8090
vn 0.7236 -0.4473 -0.5257
vn -0.1624 -0.8506 -0.5000
vn -0.2763 -0.4473 -0.8506
vn 0.2628 -0.5258 -0.8090
vn -0.1625 -0.8506 -0.5000
vn -0.6881 -0.5258 -0.5000
vn -0.2764 -0.4473 -0.8506
vn -0.1625 -0.8507 -0.5000
vn -0.5258 -0.8506 -0.0001
vn -0.6882 -0.5258 -0.5000
vn -0.5258 -0.8506 -0.0000
vn -0.8944 -0.4472 -0.0000
vn -0.6882 -0.5258 -0.4999
vn -0.6882 -0.5258 0.4999
vn -0.8944 -0.4473 -0.0000
vn -0.5257 -0.8507 0.0001
vn -0.1625 -0.8506 0.5000
vn -0.6882 -0.5258 0.5000
vn -0.2764 -0.4473 0.8506
vn -0.6881 -0.5258 0.5000
vn 0.8506 -0.5258 -0.0001
vn 0.4254 -0.8506 -0.3090
vn 0.8506 -0.5258 -0.0000
vn 0.0001 -1.0000 -0.0000
vn -0.1624 -0.8506 0.5000
vn 0.2628 -0.5258 0.8090
vn 0.4253 -0.8506 0.3091
vn 0.7236 -0.4473 0.5258
vn 0.2629 -0.5258 0.8090
vt 0.181819 0.000000
vt 0.227273 0.078731
vt 0.136365 0.078731
vt 0.272728 0.157461
vt 0.318182 0.078731
vt 0.363637 0.157461
vt 0.909091 0.000000
vt 0.954545 0.078731
vt 0.863636 0.078731
vt 0.727273 0.000000
vt 0.772727 0.078731
vt 0.681818 0.078731
vt 0.545455 0.000000
vt 0.590909 0.078731
vt 0.500000 0.078731
vt 0.318182 0.236191
vt 0.090910 0.157461
vt 0.181819 0.157461
vt 0.136365 0.236191
vt 0.818182 0.157461
vt 0.909091 0.157461
vt 0.863636 0.236191
vt 0.636364 0.157461
vt 0.727273 0.157461
vt 0.681818 0.236191
vt 0.454546 0.157461
vt 0.545455 0.157461
vt 0.500000 0.236191
vt 0.227273 0.236191
vt 0.045455 0.236191
vt 0.772727 0.236191
vt 0.590909 0.236191
vt 0.409092 0.236191
vt 0.181819 0.314921
vt 0.272728 0.314921
vt 0.227273 0.393651
vt 0.000000 0.314921
vt 0.090910 0.314921
vt 0.045455 0.393651
vt 0.727273 0.314921
vt 0.818182 0.314921
vt 0.772727 0.393651
vt 0.545455 0.314921
vt 0.636364 0.314921
vt 0.590909 0.393651
vt 0.363637 0.314921
vt 0.454546 0.314921
vt 0.409092 0.393651
vt 0.500000 0.393651
vt 0.454546 0.472382
vt 0.681818 0.393651
vt 0.636364 0.472382
vt 0.863636 0.393651
vt 0.818182 0.472382
vt 0.909091 0.314921
vt 0.136365 0.393651
vt 0.090910 0.472382
vt 0.318182 0.393651
vt 0.272728 0.472382
vt 0.954545 0.236191
vt 1.000000 0.157461
vt 0.409092 0.078731
vt 0.363637 0.000000
s 0
f 1/1/1 14/2/2 13/3/3
f 2/4/4 14/5/5 16/6/6
f 1/7/1 13/8/7 18/9/8
f 1/10/9 18/11/8 20/12/10
f 1/13/11 20/14/12 17/15/13
f 2/4/14 16/6/15 23/16/16
f 3/17/17 15/18/18 25/19/19
f 4/20/20 19/21/21 27/22/22
f 5/23/23 21/24/24 29/25/25
f 6/26/26 22/27/27 31/28/28
f 2/4/14 23/16/29 26/29/30
f 3/17/17 25/19/31 28/30/32
f 4/20/33 27/22/34 30/31/35
f 5/23/36 29/25/37 32/32/38
f 6/26/26 31/28/39 24/33/40
f 7/34/41 33/35/42 38/36/43
f 8/37/44 34/38/45 40/39/46
f 9/40/47 35/41/48 41/42/49
f 10/43/50 36/44/51 42/45/52
f 11/46/53 37/47/54 39/48/55
f 39/48/56 42/49/57 12/50/58
f 39/48/59 37/47/60 42/49/61
f 37/47/62 10/43/63 42/49/64
f 42/45/65 41/51/66 12/52/67
f 42/45/52 36/44/68 41/51/66
f 36/44/68 9/40/47 41/51/69
f 41/42/66 40/53/70 12/54/71
f 41/42/49 35/41/48 40/53/70
f 35/41/72 8/55/73 40/53/74
f 40/39/70 38/56/75 12/57/76
f 40/39/46 34/38/77 38/56/75
f 34/38/77 7/34/41 38/56/78
f 38/36/79 39/58/56 12/59/76
f 38/36/43 33/35/80 39/58/81
f 33/35/82 11/46/83 39/58/55
f 24/33/84 37/47/85 11/46/86
f 24/33/40 31/28/87 37/47/85
f 31/28/87 10/43/88 37/47/89
f 32/32/90 36/44/91 10/43/92
f 32/32/38 29/25/93 36/44/94
f 29/25/93 9/40/95 36/44/94
f 30/31/96 35/41/97 9/40/98
f 30/31/35 27/22/34 35/41/99
f 27/22/100 8/55/101 35/41/99
f 28/30/102 34/38/103 8/37/104
f 28/30/105 25/19/31 34/38/103
f 25/19/106 7/34/107 34/38/108
f 26/29/109 33/35/110 7/34/111
f 26/29/30 23/16/112 33/35/113
f 23/16/114 11/46/115 33/35/113
f 31/28/116 32/32/117 10/43/92
f 31/28/28 22/27/27 32/32/117
f 22/27/118 5/23/36 32/32/119
f 29/25/25 30/31/120 9/40/95
f 29/25/121 21/24/122 30/31/120
f 21/24/122 4/20/123 30/31/124
f 27/22/125 28/60/126 8/55/101
f 27/22/127 19/21/21 28/60/126
f 19/21/128 3/61/129 28/60/130
f 25/19/131 26/29/132 7/34/107
f 25/19/131 15/18/133 26/29/134
f 15/18/133 2/4/135 26/29/136
f 23/16/137 24/33/138 11/46/139
f 23/16/137 16/6/15 24/33/138
f 16/6/140 6/26/141 24/33/142
f 17/15/143 22/27/144 6/26/145
f 17/15/13 20/14/146 22/27/144
f 20/14/146 5/23/147 22/27/148
f 20/12/149 21/24/150 5/23/151
f 20/12/152 18/11/153 21/24/154
f 18/11/155 4/20/156 21/24/157
f 18/9/155 19/21/158 4/20/159
f 18/9/160 13/8/161 19/21/162
f 13/8/161 3/61/163 19/21/164
f 16/6/165 17/62/166 6/26/145
f 16/6/167 14/5/2 17/62/166
f 14/5/2 1/63/168 17/62/13
f 13/3/169 15/18/170 3/17/163
f 13/3/3 14/2/171 15/18/170
f 14/2/171 2/4/172 15/18/173
